# xmcd CD database file
#
# Track frame offsets:
#	150
#	7207
#	19414
#	25718
#	38638
#	46369
#	58962
#	74754
#	82471
#	97844
#	107878
#	121584
#	135623
#	147371
#	159316
#	170801
#	180973
#	200014
#
# Disc length: 2769 seconds
#
# Revision: 0
# Processed by: cddbd v1.5.2PL0 Copyright (c) Steve Scherf et al.
# Submitted via: CDex 1.70beta2
#
DISCID=030acf12
DTITLE=Clazzy O - Let
DYEAR=2006
DGENRE=Jazz
TTITLE0=Bloweth
TTITLE1=Fallen From The Sky
TTITLE2=A Place For You
TTITLE3=Desert Skies
TTITLE4=Make An Idea Do Something
TTITLE5=Rhyme
TTITLE6=Fresh Plantings
TTITLE7=A Window To The World
TTITLE8=Aching Tears
TTITLE9=The Fires Of Winter
TTITLE10=Beautiful
TTITLE11=The Call
TTITLE12=Madisonian
TTITLE13=Rue Teen
TTITLE14=Conversations
TTITLE15=I Ninety
TTITLE16=Let
TTITLE17=Friday Afternoon
EXTD=YEAR: 2006
EXTT0=
EXTT1=
EXTT2=
EXTT3=
EXTT4=
EXTT5=
EXTT6=
EXTT7=
EXTT8=
EXTT9=
EXTT10=
EXTT11=
EXTT12=
EXTT13=
EXTT14=
EXTT15=
EXTT16=
EXTT17=
PLAYORDER=
